<?xml version="1.0" encoding="utf-8"?>
<!-- Generator: Adobe Illustrator 22.1.0, SVG Export Plug-In . SVG Version: 6.00 Build 0)  -->
<svg version="1.1" xmlns="http://www.w3.org/2000/svg" xmlns:xlink="http://www.w3.org/1999/xlink" x="0px" y="0px"
	 viewBox="0 0 2272 1872" style="enable-background:new 0 0 2272 1872;" xml:space="preserve">
<style type="text/css">
	.st0{fill:transparent;}
	.st1{fill:#FAF4E8;}
	.st2{fill:#EAE5DC;}
	.st3{fill:#C6BCAB;}
	.st4{fill:#B7AC9E;}
	.st5{fill:#DDD4C7;}
	.st6{fill:#D5D3EA;}
	.st7{fill:#9B9AB5;}
	.st8{fill:#AD342A;}
	.st9{fill:#440235;}
	.st10{fill:#8681BD;}
	.st11{fill:#EF7C2E;}
	.st12{fill:#F9AE93;}
	.st13{fill:#87522D;}
	.st14{fill:#60391E;}
	.st15{fill:#A4D38F;}
	.st16{fill:#EC5946;}
	.st17{fill:#A1A1B2;}
	.st18{fill:#2D3E51;}
	.st19{fill:#617677;}
	.st20{fill:#DB3423;}
	.st21{fill:#9B8562;}
	.st22{fill:#FFEECB;}
	.st23{fill:#CEB891;}
	.st24{fill:#9C9CB7;}
	.st25{fill:#F96058;}
	.st26{fill:#A8251E;}
	.st27{fill:#97DD72;}
	.st28{fill:#7EB55D;}
	.st29{fill:#DAFFC5;}
	.st30{fill:#FEC83D;}
	.st31{fill:#B78820;}
	.st32{fill:#FFBE57;}
	.st33{fill:#B27C2F;}
	.st34{fill:none;}
	.st35{fill:#FFD18D;}
</style>
<g id="Background">
	<g id="Layer_1_1_">
	</g>
	<g id="Layer_2">
	</g>
	<g id="Layer_1_2_">
	</g>
	<g id="Layer_2_1_">
	</g>
	<g>
		<g>
			<rect x="0" class="st0" width="2272" height="1872"/>
		</g>
	</g>
</g>
<g id="object">
	<g>
		<path class="st1" d="M252.4,1250.9c26-101.6,95.3-187.9,121.8-289.3c34.9-133.5-7.7-279.1,32.5-411.1
			c36.6-120,145-215,268.8-235.5c49.9-8.3,100.9-5.3,151.3-7.9c139-7.2,271.7-56.5,405.1-96.3s275.2-70.6,410.9-39.9
			s263,138.2,275,276.9c9.2,106-47.9,208.6-44,314.9c3,80.2,40.3,154.4,67.2,230c46.8,131.5,63.3,273.8,47.8,412.5
			c-6.5,57.8-19.7,117.8-57.5,162.1c-48.9,57.4-128.8,77.1-204,83.5c-137.4,11.7-275.3-10.2-413.2-13.7
			c-194.9-5-388.3,26.2-583,30.3c-98,2.1-194.9-4.1-291.2-22.7c-74.8-14.4-124.9-76.7-158.2-143.4
			C243.6,1424.7,231.1,1334.3,252.4,1250.9z"/>
		<path class="st2" d="M1509,1277.8c-234.7,88.7-491.1,109.8-741.1,88.3c-176.5-15.1-354.8-52.4-507.7-141.5
			c-2.9,8.7-5.5,17.4-7.8,26.3c-21.4,83.4-8.8,173.8,29.5,250.4c33.4,66.7,83.4,129,158.2,143.4c96.3,18.5,193.2,24.7,291.2,22.7
			c194.6-4.1,388-35.2,583-30.3c137.9,3.5,275.8,25.4,413.2,13.7c75.1-6.4,155.1-26,204-83.5c37.7-44.3,51-104.3,57.5-162.1
			c12.4-111.2,4.3-224.6-23.5-332.9c-24.2,9.1-48.2,18.9-71.8,29.1C1764.2,1157.6,1641,1227.9,1509,1277.8z"/>
		<rect x="1749" y="344.7" class="st3" width="20.8" height="1168.6"/>
		<rect x="1402.9" y="344.7" class="st3" width="20.8" height="1168.6"/>
		<rect x="511.8" y="415" class="st3" width="20.8" height="1168.6"/>
		<g>
			<rect x="1657" y="740.2" class="st4" width="151.9" height="219.8"/>
			<rect x="1617.9" y="740.2" class="st5" width="151.9" height="219.8"/>
		</g>
		<g>
			<rect x="1209" y="740.2" class="st4" width="151.9" height="219.8"/>
			<rect x="1169.9" y="740.2" class="st5" width="151.9" height="219.8"/>
		</g>
		<g>
			<rect x="494.3" y="740.2" class="st4" width="151.9" height="219.8"/>
			<rect x="455.2" y="740.2" class="st5" width="151.9" height="219.8"/>
		</g>
		<g>
			<rect x="494.3" y="1026.5" class="st4" width="151.9" height="219.8"/>
			<rect x="455.2" y="1026.5" class="st5" width="151.9" height="219.8"/>
		</g>
		<g>
			<rect x="828.7" y="1026.5" class="st4" width="151.9" height="219.8"/>
			<rect x="789.6" y="1026.5" class="st5" width="151.9" height="219.8"/>
		</g>
		<g>
			<rect x="1249.6" y="1026.5" class="st4" width="151.9" height="219.8"/>
			<rect x="1210.5" y="1026.5" class="st5" width="151.9" height="219.8"/>
		</g>
		<g>
			<rect x="1649.4" y="1026.5" class="st4" width="151.9" height="219.8"/>
			<rect x="1610.3" y="1026.5" class="st5" width="151.9" height="219.8"/>
		</g>
		<rect x="395.9" y="1246.8" class="st3" width="1514.5" height="15.4"/>
		<rect x="395.9" y="960.9" class="st3" width="1514.5" height="15.4"/>
		<g>
			<path class="st6" d="M505.7,1541.6c-137.4,12-280.8,30.2-394.4,108.5c-14.1,9.7-29,23.3-27.5,40.3c2.1,23.1,31,31.8,54.2,34.1
				c157.3,15.8,315.8,4.3,473.6-4.8c350.5-20.2,701.6-28.4,1052.7-24.6c144.2,1.6,291.4,4.8,428.8-38.9c78.9-25.1-4.2-64-41.5-78
				c-38.1-14.2-78.4-26.4-118.8-32.3c-88.3-13-181.2-11.3-270.2-16.8c-245.8-15.3-492.3-19.7-738.5-12.1
				C784.3,1521.2,644.8,1529.4,505.7,1541.6z"/>
			<path class="st7" d="M1599.8,1589.7c-166.6,2.9-333.2,5.7-499.7,8.6c-209.5,3.6-474.4-26.1-666.2,79.5c-12,6.6-9.3,24.6,4.2,27.3
				c55.2,11.1,120,6.1,169.6-5.6c317.9-75.2,648.9-61.2,975.5-67.5c24.8-0.5,52.9-2.6,68.6-21.8
				C1644.1,1591.9,1619.6,1589.4,1599.8,1589.7z"/>
			<path class="st7" d="M1819.5,1620.8c-7.3,0-7.3,11.3,0,11.3C1826.7,1632.1,1826.7,1620.8,1819.5,1620.8z"/>
			<path class="st7" d="M1970.2,1613.8c-7.3,0-7.3,11.3,0,11.3C1977.5,1625.1,1977.5,1613.8,1970.2,1613.8z"/>
			<path class="st7" d="M1702.4,1628.4c-0.2-0.8-0.4-1.5-0.6-2.3c-0.6-2.2-2.6-4.3-5.1-4.2c-2.4,0.1-4.3,1.8-5,4.1
				c-0.2,0.8-0.4,1.6-0.6,2.4c-0.9,3.7,1.8,7.4,5.6,7.4C1700.6,1635.8,1703.3,1632.1,1702.4,1628.4z"/>
			<path class="st7" d="M1828.1,1581.4c-1.1-1.8-3-2.9-5.1-2.9c-2.1,0-4.1,1.1-5.1,2.9c-0.5,0.9-0.8,1.9-0.8,3c0,1.1,0.3,2.1,0.8,3
				c0.2,0.5,0.4,1,0.7,1.5c0.4,0.7,1,1.3,1.6,1.9c1.4,1.5,4.2,1.5,5.7,0c0.5-0.6,1.2-1.2,1.6-1.9c0.3-0.5,0.5-1,0.7-1.5
				c0.5-0.9,0.8-1.9,0.8-3C1828.9,1583.3,1828.6,1582.3,1828.1,1581.4z"/>
			<path class="st7" d="M1886.1,1612.7c-4.2,0-4.3,6.6,0,6.6C1890.3,1619.3,1890.3,1612.7,1886.1,1612.7z"/>
			<path class="st7" d="M256,1665.1c-1.2-1.5-2.8-2.2-4.7-2.2c-0.9,0-1.8,0-2.7,0c-3-0.1-5.8,2.7-5.7,5.7c0.1,3,2.5,5.7,5.7,5.7
				c0.9,0,1.7,0,2.6,0c1.6,0,3.2-0.5,4.4-1.7c1-1,1.8-2.6,1.7-4C257.3,1667.2,256.8,1666.2,256,1665.1z"/>
			<path class="st7" d="M374.9,1638.3c-2.9,0-2.9,4.5,0,4.5C377.7,1642.7,377.8,1638.3,374.9,1638.3z"/>
			<path class="st7" d="M424,1567.8c-3.3,0-3.3,5.2,0,5.2C427.3,1573,427.3,1567.8,424,1567.8z"/>
			<path class="st7" d="M480.1,1612.9c-8.4,0-8.4,13.1,0,13.1C488.5,1626,488.5,1612.9,480.1,1612.9z"/>
			<path class="st7" d="M297.7,1634.4c-7.9,0-7.9,12.3,0,12.3C305.6,1646.7,305.7,1634.4,297.7,1634.4z"/>
			<path class="st7" d="M297.7,1673.7c-6.9,0-6.9,10.8,0,10.8C304.7,1684.5,304.7,1673.7,297.7,1673.7z"/>
			<path class="st7" d="M716.8,1575.1c-0.6-2.6-2.2-5.4-5.3-5.3c-5.7,0.3-5.6,6.9-5.6,11.1c0,2.9,2.6,5.8,5.6,5.6
				c3.1-0.1,5.6-2.5,5.6-5.6C717.1,1579,717.3,1577,716.8,1575.1z"/>
			<path class="st7" d="M809.7,1553.3c-4,0-4,6.2,0,6.2C813.6,1559.5,813.6,1553.3,809.7,1553.3z"/>
			<path class="st7" d="M925.4,1526c-7.5,0-7.5,11.7,0,11.7C932.9,1537.7,932.9,1526,925.4,1526z"/>
			<path class="st7" d="M1012.9,1654.2c-3.1-0.1-6.3-0.2-9.4,0.1c-3.2,0.3-6.2,1.7-9.3,2.8c-4.4,1.6-4.2,9.2,1.2,8.8
				c3.3-0.3,6.9-0.2,10.1-1.3c3.1-1.1,6.2-2.5,9.1-4C1017.8,1658.9,1016.1,1654.3,1012.9,1654.2z"/>
			<path class="st7" d="M1146.3,1654.6h-10.5c-3.6,0-7.1,3.2-6.9,6.9c0.2,3.7,3,6.9,6.9,6.9h10.5c3.6,0,7.1-3.2,6.9-6.9
				C1153,1657.8,1150.1,1654.6,1146.3,1654.6z"/>
			<path class="st7" d="M1297,1643c-10.4,0-10.4,16.1,0,16.1C1307.4,1659.1,1307.4,1643,1297,1643z"/>
			<path class="st7" d="M1252.8,1527c-1.2-1.2-2.3-2.4-3.5-3.5c-1.2-1.3-3.1-2-4.9-2c-1.7,0-3.7,0.8-4.9,2c-1.2,1.3-2.1,3-2,4.9
				c0.1,1.8,0.7,3.6,2,4.9c1.2,1.2,2.4,2.3,3.5,3.5c1.3,1.2,3.1,2,4.8,2c1.7,0,3.7-0.7,4.8-2c1.2-1.3,2.1-3,2-4.8
				C1254.7,1530,1254.1,1528.3,1252.8,1527z"/>
		</g>
		<g>
			<path class="st8" d="M1155.9,724.4c-80.5,55.7-173.2,91.2-267,119.2c-23.2,7-50.6,17.7-54.9,41.6c-3.1,17.4,9.1,34.8,24.9,42.6
				c15.9,7.8,34.4,7.7,51.9,5.3c29.5-4,57.8-14.1,85.9-24.2c29.7-10.6,59.5-21.3,89.2-31.9c36.1-12.9,72.7-26.1,104.2-48.1
				c31.4-22,57.6-54.3,63.7-92.2c2.5-15.7,1.3-32.6-6.6-46.5c-10.9-19.2-28.6-27.2-44-10.7C1187.9,696.4,1174.8,711.3,1155.9,724.4z
				"/>
			<path class="st9" d="M1056.5,1228.5c0,0,233,241.6,303.5,266.6c70.5,25,236.1,83.5,236.1,83.5s-39.7,51.8-31.6,47.9
				s91.5-37,93.9-58s-265.2-184.3-265.2-184.3l-196.6-346.7C1196.6,1037.5,1041.2,1132,1056.5,1228.5z"/>
			<path class="st10" d="M1393.1,1384.2l-111.5-196.6c-41.5,47.3-88,90.1-138.6,127.5c73.9,72,174.6,164.9,216.9,179.9
				c70.5,25,236.1,83.5,236.1,83.5s-39.7,51.8-31.6,47.9c8.1-4,91.5-37,93.9-58S1393.1,1384.2,1393.1,1384.2z"/>
			<g>
				<path class="st11" d="M1283.7,217.4c47.5-34.9,101-70.2,159.7-66c15.4,1.1,33.6,8.3,35.2,23.6c0.9,8.2-3.6,15.9-8,22.8
					c-53.7,85.1-125.8,157-201,223.9c-86.6,77.1-179,149.2-282.6,201.2c-21.2,10.6-44.8,20.7-67.9,15.4
					c-23.8-5.4-66.9-46.2-61.1-73.7c3.2-15.1,30.2-29.9,41.2-39.1c17.7-14.9,35.3-29.8,53.1-44.6c69.5-58.2,139.5-116,210.8-171.9
					C1202.9,277.9,1243,247.3,1283.7,217.4z"/>
				<path class="st12" d="M1443.4,151.4c-2.8-0.2-5.5-0.3-8.3-0.3c-7,3.1-13.8,6.9-20.1,11.4c-21.6,15.6-36.4,39.7-59.1,53.7
					c-14.9,9.3-32.9,14-45.5,26.2c-12.6,12.2-17.9,30.1-28,44.5c-22.3,31.7-66,44.1-85.5,77.6c-9.2,15.8-12,34.8-21.2,50.5
					c-14.4,24.5-42,37.7-63,56.8c-32.3,29.3-50.8,74.1-89.4,94.4c-23.4,12.3-50.9,13.8-75.7,23c-20.2,7.5-38.2,20.5-52.2,36.9
					c8.4,6.3,16.9,10.8,23.7,12.3c23.1,5.3,46.8-4.8,67.9-15.4c103.6-52.1,196-124.1,282.6-201.2c75.2-66.9,147.2-138.8,201-223.9
					c4.4-7,8.8-14.7,8-22.8C1477.1,159.7,1458.8,152.5,1443.4,151.4z"/>
				<path class="st11" d="M1279.4,358.8c-6.2,3.7-13.4,7.2-20.6,9.4c-0.9-4.5-1.7-9-2.1-13.6c-0.6-5.7-0.5-11.7-2.5-17
					c-0.6-1.6-2.7-2-3.7-0.5c-5.7,8.8-4.4,22.2-3.4,32.1c0.1,1,0.3,2.1,0.4,3.1c-0.9,2-0.5,4.7,1,6.3c0.6,2.8,1.2,5.6,2,8.4
					c1.3,4.5,3.1,11.2,9,11.1c4.7-0.1,6.1-5.4,5.3-9.3c-0.7-3.5-2-6.9-3.2-10.4c8.8-2,16.2-6.1,22.4-13.9
					C1286.4,361.5,1283.3,356.5,1279.4,358.8z"/>
				<path class="st11" d="M1331.3,329.7c-5.6-2.6-10.6,0.9-15.7,3.2c-1.5,0.7-3,1.3-4.5,1.9c-0.7-3.6-1.4-7.3-1.8-10.9
					c-1.2-10.6,0.4-22-1.8-32.4c-0.4-1.9-2.9-1.9-3.8-0.5c-6.1,9.3-6.5,23-6.6,33.8c0,5.8,0.4,11.6,1.2,17.3
					c0.9,6.2,1.7,13,4.7,18.6c3.2,5.9,14.1,3.6,13.3-3.6c-0.4-4.3-1.8-8.3-3-12.5c2-0.3,3.9-0.8,5.7-1.2c5.3-1.3,12.8-3.3,13.8-9.6
					C1333.2,332.3,1332.8,330.4,1331.3,329.7z"/>
				<path class="st11" d="M1370.9,284.4c-7,2.4-13.5,6.8-20.4,9.9c-0.7-3.3-1.2-6.7-1.6-10c-1.3-10.8-2.1-21.8-2.3-32.8
					c-0.1-4.4-7.1-5.8-8-1.1c-4.2,22.8-3.4,47.5,2.9,69.9c1.5,5.3,8.5,7.4,12.4,3.3c2.9-3.1,4-6,5.4-9.9c1.1-3.2-2.2-5.4-4.9-4.9
					c-0.2,0-0.3,0.1-0.5,0.1c-0.6-2.2-1.1-4.4-1.6-6.5c2.4-0.2,4.8-0.7,7-1.2c6.3-1.4,12.1-3.9,16.1-9
					C1377.9,288.8,1375.7,282.8,1370.9,284.4z"/>
				<path class="st11" d="M1438.5,209.7c-4.6-0.3-8.9,1.5-12.9,4c-0.6-5.8-1-11.7-1.1-17.6c-0.1-6.4-9.6-6.3-9.9,0
					c-0.3,8.3-0.4,16.7,0.1,25c-0.3,0.2-0.7,0.4-1,0.6c-4.4,2.6-2.1,8.5,1.9,9c0.2,1.8,0.5,3.6,0.7,5.4c0,0.2,0.1,0.4,0.1,0.7
					c-5,1.3-8.9,4.5-13.2,7.5c-2.2,1.5-4.4,2.9-6.7,4.2c-0.4-7.9-0.6-15.9-2.5-23.5c-0.5-2-3.2-1.7-3.8,0
					c-3.3,9.2-3.4,19.7-3.5,29.4c0,0.2,0,0.5,0,0.7c-0.2,0.1-0.4,0.2-0.6,0.2c-2.4,0.8-1.8,4.3,0.3,4.4c-0.4,7.3-0.4,17.7,6.5,17.5
					c3.9-0.1,5.5-4.2,5.5-7.5c0-3.8-0.6-7.7-1-11.6c0.3-0.1,0.6-0.1,0.8-0.2c3.4-0.9,6.7-2.4,9.9-3.8c4.6-2.1,9.4-4.6,12.4-8.6
					c0.3,0.2,0.6,0.4,1,0.7c2.4,1.4,5.1,0.4,6.6-1.7c2.5-3.5,1.4-6.8,0.7-10.7c-0.5-2.6-0.9-5.1-1.4-7.7c5.8-2.6,11.5-5.5,14.2-11
					C1442.9,212.6,1441.3,209.9,1438.5,209.7z"/>
				<path class="st11" d="M1237.2,401.3c-3.5,0.5-7.1,1.1-10.4,2.4c-0.8,0.3-1.6,0.7-2.3,1.1c0-4.9-0.1-9.8-0.5-14.7
					c-0.2-2.7-0.6-5.4-0.9-8c-0.5-3.5-2.2-7.1-2.3-10.7c-0.1-2.6-4.1-2.6-4.1,0c0.1,2.7-0.9,4.8-1.4,7.4c-0.5,2.7-0.7,5.6-1,8.4
					c-0.7,5.9-1.1,11.8-1.6,17.7c-0.5,5.9-1.3,11.8-1.9,17.7c-0.5,4.1,0.1,10.8,5.6,11.5c8.2,1,8.8-11.1,8.5-19.6
					c5.1-1.5,9.7-3.3,14.2-6.7C1241.3,406,1241.1,400.8,1237.2,401.3z"/>
			</g>
			<path class="st13" d="M1231.7,515.8c-16.9-7.9-26-28.2-23.7-46.7c2.3-18.5,14.2-34.9,29.3-45.9c35-25.3,88.1-21,118.7,9.5
				c27.8,27.7,34.8,69.4,40.5,108.2c7.9,54,56.9,93.6,95.7,132c38.8,38.4,81.4,72.8,119.6,111.9c20.9,21.3,40.7,44.4,53.5,71.4
				s18.1,58.6,9.3,87.1c-7.5,24.4-24.9,45-45.4,60.2c-20.6,15.2-44.3,25.5-68.3,34.3c-27.5,10.1-55.9,18.5-85.2,20
				c-21.2,1.1-42.6-1.5-63-7.7c-18.9-5.7-37.3-14.8-50.8-29.2c-9.3-9.9-16-22-21.1-34.6c-24.4-61.3-9.3-131-20.9-196
				c-9.7-54.6-38.4-108.1-27.7-162.4c4.2-21.6,14.6-44,6.6-64.5c-2.8-7.2-7.6-13.3-12.6-19.1
				C1272.3,528.1,1251.1,524.9,1231.7,515.8z"/>
			<path class="st14" d="M1397.4,1004c21.6-2.6,43.4-9.4,60-23.4c13.2-11.1,22.6-26.2,29.4-42c15-34.8,18.5-74.4,9.8-111.3
				c-6.2-26.4-18.4-50.9-31.8-74.4c-42.5-74.1-99.7-139.6-167.1-192.2c0.4,0.9,0.9,1.9,1.2,2.9c7.9,20.5-2.4,42.9-6.6,64.5
				c-10.7,54.4,18,107.9,27.7,162.4c11.6,65-3.6,134.7,20.9,196c2.3,5.8,4.9,11.4,8,16.8C1364.9,1005.6,1381.2,1005.9,1397.4,1004z"
				/>
			<path class="st10" d="M1307.3,595c0,0-215.6,65.6-207,106.9s15.3,87.4,15.3,87.4l-14.8,170.8c0,0-489.4,394.8-492.4,420
				c-3,25.2-86.8,268.7-86.8,268.7s-111.1,43-91.6,46.5c19.5,3.4,124.5-12,124.5-12l0.4-30.3c0,0,155-201.3,167-257.9
				c0,0,523.7-192.9,534.1-260.2c10.4-67.3,0-113.4-52-188.7c0,0,59.4-151.8,139.1-212.8C1422.7,672.2,1367.8,585.5,1307.3,595z"/>
			<path class="st15" d="M1307.3,595c0,0-215.6,65.6-207,106.9s15.3,87.4,15.3,87.4l-14.8,170.8c0,0-8.5,6.8-23.1,18.7
				c3.2-1.6,6.3-3.2,9.5-4.8c36.7-18,77.1-28.3,118-30.6c8.4-20.7,64.6-153.9,138-210.1C1422.7,672.2,1367.8,585.5,1307.3,595z"/>
			<path class="st9" d="M1334.6,736.8c-0.1-1.5-0.4-3.3-1.6-4.2c-1.3-1-3.2-0.8-4.8-0.5c-5.7,1.3-10.9,3.9-16.1,6.4
				c-59,29.4-118,58.8-177,88.1c-8,4-15.9,7.9-23.9,11.9l-7.4,85.1c53.5-25.7,106-53.3,154.5-87c21.1-35.3,47.2-71.7,76.4-96.7
				C1334.7,738.9,1334.7,737.9,1334.6,736.8z"/>
			<path class="st16" d="M1393.1,1384.2l-20-35.2c-15,14.2-32.4,26.4-50,37.4c-20.9,13.1-42.6,25-64.7,35.9
				c41.6,36.1,79.5,65,101.5,72.8c70.5,25,236.1,83.5,236.1,83.5s-39.7,51.8-31.6,47.9c8.1-4,91.5-37,93.9-58
				S1393.1,1384.2,1393.1,1384.2z"/>
			<path class="st16" d="M743.8,1254.5c-76.2,64.8-134.5,117-135.5,125.6c-3,25.2-86.8,268.7-86.8,268.7s-111.1,43-91.6,46.5
				c19.5,3.4,124.5-12,124.5-12l0.4-30.3c0,0,155-201.3,167-257.9c0,0,51.4-18.9,122.4-47C804.3,1325,769.6,1292.7,743.8,1254.5z"/>
			<path class="st9" d="M1645.5,1552.7c-12.1,15.3-30.8,25.2-50.3,27c-5.6,7.4-38.2,50.4-30.8,46.8c8.1-4,91.5-37,93.9-58
				C1658.7,1565.6,1653.9,1560.1,1645.5,1552.7z"/>
			<path class="st9" d="M514.6,1651.5c-24,9.5-101.2,40.8-84.6,43.7c19.5,3.4,124.5-12,124.5-12l0.3-25
				C541.1,1659.8,526.9,1657.6,514.6,1651.5z"/>
			<g>
				<path class="st16" d="M1241.5,480.7c-2.7,1.1-52.2,82.9-30.8,90S1286,559,1286,559s39.6,22.6,45.5,2.2s9-38.5-20.1-45.9
					C1311.4,515.2,1291.7,459.5,1241.5,480.7z"/>
				<path class="st9" d="M1216.9,571.9c24,2.7,69.2-12.9,69.2-12.9s39.6,22.6,45.5,2.2c3-10.2,5.2-19.8,3.1-27.9
					C1295,545.3,1255.6,557.6,1216.9,571.9z"/>
				<g>
					<path class="st6" d="M1228.7,573.9l127.8-42.1c6.5-2.1,13.3,2.2,14,9l4.5,38.5c0.6,5.5-3,10.6-8.4,11.8L1241,618
						c-5.5,1.2-11-2.1-12.6-7.5l-6.7-23.3C1220.1,581.6,1223.2,575.8,1228.7,573.9z"/>
					<path class="st17" d="M1228.7,573.9c-5.5,1.8-8.6,7.6-7,13.2l6.7,23.3c1.6,5.4,7.1,8.7,12.6,7.5l30-6.4
						c14.5-23.5,30.5-46,47.9-67.3L1228.7,573.9z"/>
					<g>
						<path class="st18" d="M1228.7,573.9c-5.5,1.8-8.6,7.6-7,13.2l6.7,23.3c1.6,5.4,7.1,8.7,12.6,7.5l0.7-0.2
							c-2.2-15.3-4.3-30.7-6.5-46L1228.7,573.9z"/>
						<path class="st18" d="M1375,579.3l-4.5-38.5c-0.8-6.8-7.6-11.1-14-9l0,0c3.3,19.8,5.6,39.9,6.8,60l3.3-0.7
							C1372,589.9,1375.6,584.9,1375,579.3z"/>
					</g>
					<circle class="st9" cx="1363.7" cy="541" r="2.8"/>
				</g>
				<path class="st13" d="M1239.8,480c-0.9,10.4,4.2,20.8,11.7,28c7.5,7.3,17.3,11.8,27.2,15.1c-0.7-5.6-0.2-12.2-0.4-17.8
					c3.7,8,10.5,16.4,18.4,20.1c6.9-7.8,19.2-14.4,29.5-16.5c-3-10.3-6.1-20.6-11.3-29.9c-5.2-9.3-12.6-17.7-22.3-22.3
					c-10.3-4.8-22.7-4.9-33-0.1C1249.4,461.5,1240.8,468.7,1239.8,480z"/>
			</g>
			<g>
				<g>
					<path class="st19" d="M920.7,219.9L920.7,219.9c-9.3-0.7-17.5,6.2-18.2,15.5l-5.3,66.5l33-1.2l6-62.4
						C937.1,229,930.1,220.7,920.7,219.9z"/>
					<path class="st19" d="M917.6,261.4L917.6,261.4c-35.8-2.9-67.2,23.9-70.1,59.7l-20.4,255.7l126.9-4.5l23.1-239.8
						C980.7,296.3,953.8,264.3,917.6,261.4z"/>
					<path class="st6" d="M921.1,394.3c-26.2-0.1-52-6.1-76.8-14.3c-0.4-0.1-0.9-0.3-1.4-0.5l-5.8,72.5c17.6,7,35.4,13.5,53.9,17.4
						c24.1,5.2,49.7,5.9,73.1-1.8l7.9-82.1C955.9,391.6,938.4,394.4,921.1,394.3z"/>
					<path class="st20" d="M933.8,197.3l-24.3-1.9c-6.2-0.5-11.7,4.2-12.2,10.4l-2.4,30.3c-0.5,6.2,4.2,11.7,10.4,12.2l24.3,1.9
						c6.2,0.5,11.7-4.2,12.2-10.4l2.4-30.3C944.7,203.3,940.1,197.8,933.8,197.3z"/>
				</g>
				<g>
					<path class="st21" d="M918.3,628.5c-0.2-6.3,99.4-283.8,99.4-283.8L1221,458.9l5.8,31.8l-97,186.5L918.3,628.5z"/>
					<path class="st22" d="M1226.7,490.6l-5.8-31.8l-203.2-114.1c0,0-99.6,277.6-99.4,283.8l67.7,15.6l58.4-243.3L1226.7,490.6z"/>
					<path class="st23" d="M918.3,628.5l67.7,15.6l58.4-243.3l-26.7-56.1C1017.8,344.7,918.2,622.3,918.3,628.5z"/>
					<polygon class="st24" points="1021.1,498.4 1021.1,498.4 1003.1,573.2 1157.8,623.2 1187.1,566.9 					"/>
					<path class="st6" d="M991.3,569.4l11.8,3.8l18-74.8l-45.3-36c-0.6,1.8-1.3,3.6-1.9,5.5c-1.9,5.4-3.9,10.9-5.8,16.4
						c-1.6,4.4-3.1,8.8-4.7,13.1c-2.3,6.6-4.6,13.1-6.9,19.5c-0.8,2.1-1.5,4.3-2.3,6.4c-0.3,0.9-0.6,1.8-0.9,2.7L991.3,569.4z"/>
				</g>
				<g>
					<path class="st20" d="M1011.9,558.4c3.4-24.2,23.8-44.2,47.4-50.6c9.2-2.5,19.1-3.2,28.2-0.3c16.2,5.2,27.2,21.9,28,38.8
						c0.8,17-7.6,33.6-20.1,45c-14.6,13.2-41.9,28.1-60.5,16.5C1018.6,597.8,1009.3,577.3,1011.9,558.4z"/>
					<path class="st25" d="M1062.3,532.1c9.7,5.4,22,5.7,32,0.9c5.1-2.4,9.5-6.1,12.8-10.6c-4.9-6.8-11.6-12.2-19.6-14.8
						c-9.1-2.9-19-2.2-28.2,0.3c-4.9,1.3-9.7,3.3-14.3,5.7C1049.1,521.2,1054.8,527.9,1062.3,532.1z"/>
					<path class="st26" d="M1072.9,566.1c-7.2-1-14,3.8-21.2,5.1c-1.7,0.3-3.4,0.4-5-0.1c-4-1.2-6.3-5.5-7-9.6
						c-0.7-4.1-0.4-8.4-1.5-12.4c-2.1-7.7-9.6-13.4-17.5-13.6c-4.5,6.9-7.6,14.6-8.8,22.8c-2.6,18.9,6.7,39.4,23,49.5
						c18.6,11.6,45.9-3.3,60.5-16.5c1.8-1.7,3.5-3.4,5.2-5.3c-1.9-0.7-3.7-1.7-5.3-2.9C1087.5,577.6,1082.3,567.5,1072.9,566.1z"/>
				</g>
				<g>
					<path class="st20" d="M950.6,523.2c18.6-15.9,47-17.4,69-6.6c8.6,4.2,16.4,10.2,21.3,18.4c8.7,14.6,6,34.4-4.7,47.7
						c-10.6,13.3-27.9,20.2-44.9,20.4c-19.7,0.3-50-6.6-56.3-27.6C929.6,557.2,936.2,535.7,950.6,523.2z"/>
					<path class="st25" d="M1005.8,536.8c3.7,10.4,12.7,18.8,23.4,21.9c5.4,1.5,11.2,1.7,16.7,0.5c0.9-8.4-0.6-16.9-4.9-24.1
						c-4.9-8.2-12.8-14.2-21.3-18.4c-4.6-2.3-9.5-4-14.5-5.1C1003.2,519.9,1003,528.7,1005.8,536.8z"/>
					<path class="st26" d="M991.3,569.4c-4.8-5.5-13-6.4-19.2-10.2c-1.4-0.9-2.8-2-3.7-3.4c-2.2-3.5-1.1-8.2,1.1-11.8
						c2.2-3.6,5.2-6.6,7.1-10.3c3.5-7.1,1.6-16.4-4.1-21.8c-7.9,2.2-15.4,5.9-21.7,11.3c-14.5,12.4-21,34-15.5,52.3
						c6.3,21,36.6,27.9,56.3,27.6c2.5,0,4.9-0.2,7.4-0.5c-0.9-1.8-1.6-3.7-2.1-5.7C994.7,587.6,997.5,576.6,991.3,569.4z"/>
				</g>
				<g>
					<path class="st20" d="M1097.3,572.5c18.9,15.5,25.3,43.3,18.4,66.8c-2.7,9.1-7.2,18-14.5,24.2c-12.9,11.1-32.9,11.8-47.7,3.7
						c-14.9-8.2-24.7-24-27.9-40.7c-3.7-19.3-2.1-50.4,17.5-60.2C1060.1,557.7,1082.5,560.4,1097.3,572.5z"/>
					<path class="st25" d="M1093.5,629.2c-9.6,5.5-16.3,15.8-17.5,26.8c-0.6,5.6,0.3,11.3,2.4,16.5c8.4-0.6,16.5-3.5,22.9-9
						c7.2-6.2,11.8-15,14.5-24.2c1.4-4.9,2.3-10,2.6-15.2C1109.6,623.7,1100.9,625,1093.5,629.2z"/>
					<path class="st26" d="M1058.8,620.5c4.6-5.7,4-13.9,6.7-20.7c0.6-1.6,1.4-3.1,2.7-4.3c3.1-2.8,7.9-2.5,11.8-1
						c3.9,1.5,7.4,4,11.4,5.2c7.6,2.2,16.4-1.2,20.7-7.8c-3.5-7.4-8.5-14.1-14.9-19.4c-14.7-12.1-37.1-14.8-54.2-6.2
						c-19.6,9.9-21.1,40.9-17.5,60.2c0.5,2.4,1.1,4.8,1.8,7.2c1.6-1.2,3.3-2.3,5.2-3C1041.4,627,1052.8,627.9,1058.8,620.5z"/>
				</g>
				<g>
					<path class="st27" d="M716.8,510.6c9-5.2,12.5-16.4,13.4-26.8c1-10.3,0.2-21.1,4.1-30.8c4.3-10.7,14.4-18.8,25.7-20.7
						c11.3-2,23.5,2.3,31.2,10.9c6.9,7.8,11.8,19.7,22.2,20.6c5.5,0.5,10.6-2.6,15.2-5.6c10.6-7.1,20.9-15.3,33.3-18.1
						c12.4-2.8,27.7,1.9,32.1,13.9c3.5,9.7-1.1,21.2,3.2,30.7c5.3,11.6,20.4,13.9,33.1,15.5c12.7,1.6,28,6.8,29.7,19.5
						c2.1,16-20,30.7-12.1,44.8c1.6,2.9,4.4,5.1,6.2,8c6.4,10.6-3.6,23.5-13.7,30.7c-28.4,20.3-64.1,30.1-98.8,27
						c-15-1.3-30.5-4.8-44.8-0.2c-28.3,9.1-37.9,12.1-63-7.2c-11.2-8.7-21.4-17.6-29.6-29.3c-9.9-14.2-22.7-33.4-26-50.5
						C672.3,511.3,698.9,520.9,716.8,510.6z"/>
					<path class="st28" d="M912.6,559.7c-1-8.6,0.1-19.5-7.4-23.8c-9-5.2-19.3,5.2-29.7,5.4c-7.5,0.1-14.1-5.3-17.6-11.9
						c-3.5-6.6-4.3-14.2-5-21.7c-0.3-3.4-0.7-7.1-3.3-9.3c-1.8-1.5-4.3-2-6.7-1.9c-13.3,0.4-21.5,14-28.6,25.2
						c-7.1,11.2-19.9,22.9-31.9,17.3c-10.3-4.7-13.3-19.8-24.1-23.1c-9.3-2.8-18.8,5.2-22.2,14.3c-3.4,9.1-2.6,19.1-4,28.7
						c-1.3,9.6-5.7,20-14.8,23.4c-7.2,2.7-14.9,0.2-22.3-2.4c3.1,4.8,6.2,9.4,9.1,13.5c8.1,11.7,18.3,20.6,29.6,29.3
						c25.1,19.3,34.7,16.3,63,7.2c14.3-4.6,29.8-1.1,44.8,0.2c34.7,3,70.4-6.8,98.8-27c2.8-2,5.7-4.5,8.1-7.3
						c-5.7-3.7-13-5.9-18.9-9.5C920.3,580.6,913.8,570.5,912.6,559.7z"/>
					<g>
						<path class="st29" d="M795.3,569.6c-2.7-4.8-5.7-9.7-7.4-14.9c-2.3-7.2-0.2-13.7,0.5-20.9c1.3-13.5-6-25-13.7-35.5
							c-7.9-10.9-18.2-26-10.5-39.7c1.2-2.1-1.5-3.9-3.1-2.1c-8.7,9.8-6,23.5-0.8,34.3c6,12.2,18.2,23.3,18.7,37.7
							c0.2,7.3-2.9,14.2-2.4,21.6c0.4,5.9,2.5,11.5,5,16.8c4.9,10.2,12.1,19.2,11.1,31.1c-0.5,5.7,8.6,8,10.1,2.2
							C805.7,589,800.5,579,795.3,569.6z"/>
						<path class="st29" d="M779.6,596.6c-2.5-7.4-11.1-12.3-17.5-16.1c-7.7-4.7-14.8-9-19.2-17.1c-7.7-14.2-13-33-32-34.5
							c-3.5-0.3-4,5.2-0.4,5.5c17.4,1.4,19.7,27.7,27.4,39.3c4.1,6.2,10.1,10.6,16.3,14.4c3,1.9,6,3.6,8.9,5.7
							c3.3,2.4,5.5,5.4,8.4,8.2C775.6,605.9,781.4,602,779.6,596.6z"/>
						<path class="st29" d="M861.9,467.4c-10.6-1.9-17.4,10.9-21.5,18.7c-5.5,10.6-8.6,22.2-9.5,34c-0.4,5.8-0.4,11.6,0.1,17.3
							c0.6,6.6,2.2,13.2,2,19.8c-0.2,6.9-3.4,13.3-6,19.5c-2.8,6.6-7.2,14-7.9,21.1c-0.5,5.6,6.5,7.4,9.7,3.5
							c3.7-4.6,5.3-11.3,7.5-16.7c2.4-6,5.2-12,6.7-18.3c2.7-11.3-0.8-22.3-1.6-33.6c-0.8-10.7,0-21.8,2.8-32.3
							c1.5-5.4,3.5-10.8,6.1-15.8c2.5-4.7,5.9-11.5,11.7-12.4C865.2,471.9,864.6,467.9,861.9,467.4z"/>
						<path class="st29" d="M925.3,525.3c-18.4,4.9-31.4,17.1-39.4,34.1c-4.2,8.9-8.1,17.3-16.2,23.3c-8,5.9-18,7.8-26.3,12.9
							c-5.5,3.3-3.2,11.8,3.6,10.9c8.9-1.3,17.9-5.8,25.4-10.6c8.1-5.2,14.3-12,18.6-20.6c4.3-8.6,6.9-18,12.6-25.8
							c5.8-7.8,13.9-13.5,23.2-16.2C931.7,531.7,930.4,523.9,925.3,525.3z"/>
					</g>
				</g>
				<path class="st30" d="M719.2,1058.5c0,0-160.9-76.4-192.9-133.2s137.9-374.4,132.1-381.6s388.6-1.4,510.9,112.8L915.1,989.6
					L719.2,1058.5z"/>
				<path class="st31" d="M1169.3,656.4c-20.4-19-48.3-35-80.7-48.5c-42.2,82.8-100.9,157.2-161.7,228.1
					c-60,70-122.6,137.7-185.2,205.4c-4.1,4.5-8.3,8.9-12.4,13.4l185.8-65.3L1169.3,656.4z"/>
				<path class="st31" d="M686.9,761.1c-10.9-1.2-21.7-2.4-32.6-3.5c0.7-1.8,1.3-3.6,2-5.4c1.4-3.8,2.9-7.6,4.3-11.5
					c4.1,0.4,8.3,0.8,12.4,1.1c6.6,0.5,20.6,3.3,23.2-5.4c2.9-9.6-11.2-9.8-16.8-9.9c-4.4-0.1-8.9-0.3-13.3-0.6
					c3.2-8.5,6.4-16.9,9.7-25.3c6.8-17.5,13.6-34.8,19-52.8c0.6-2-2.1-3.6-3.3-1.7c-10.2,15.9-18.3,32.5-26.2,49.6
					c-4.4,9.7-8.9,19.5-13.1,29.3c-0.6,0-1.1-0.1-1.7-0.1c-5.9-0.4-11.8-1.1-17.7-1.8c11.8-27.4,24.3-54.6,37.2-81.5
					c1.5-3.1-3.7-5.8-5.3-2.8c-14.9,27.2-28.7,55-41.6,83.2c-8.4-1-18.3-3.6-26.5-1.3c-1.3,0.4-2.3,2.1-1.1,3.3
					c5.9,5.5,14.9,7.4,22.6,9.3c-1,2.3-2,4.5-3,6.8c-2,4.5-3.9,8.9-5.8,13.4c0,0,0,0,0,0c-4.2-0.2-8.4-0.3-12.7-0.4
					c-2.1,0-4.3-0.2-6.4,0.1c-2.1,0.2-4.2,1.4-6.4,1.1c-2.5-0.3-2.8,3.6-0.3,3.9c1.9,0.2,3.4,1.8,5.1,2.5c2.2,1,4.7,1.3,7,1.9
					c3,0.8,6,1.4,9,2.1c-3.9,9.3-7.6,18.6-11.3,27.9c-6.8,17.4-13.7,34.7-17.2,53.1c-0.6,3.1,4.5,5,6,2.1
					c8.6-16.6,14.5-34.2,21.2-51.6c3.8-9.9,7.6-19.7,11.5-29.5c6.2,1.1,12.4,2.1,18.7,3.1c0.2,0,0.4,0.1,0.5,0.1
					c-3.6,9.2-7.1,18.5-10.5,27.8c-3.3,9-6.5,17.9-9.6,26.9c-3,8.6-7.3,17.9-6.2,27.1c0.5,4.2,6.8,6.8,9.9,3.5
					c6.4-6.9,8.4-16.4,11.3-25.1c2.8-8.4,5.6-16.8,8.6-25.2c3.8-10.9,7.7-21.8,11.6-32.7c12.2,1.9,24.5,3.7,36.7,5.5
					C696.3,779.5,697.8,762.3,686.9,761.1z M639.3,756.1c-1.6-0.2-3.3-0.3-4.9-0.5c-4.9-0.5-9.8-1-14.7-1.4c1.3-3.3,2.7-6.6,4.1-9.8
					c1.2-2.9,2.5-5.9,3.7-8.8c5.9,1.3,11.8,2.3,17.7,3.2c0.3,0.1,0.7,0.1,1,0.2c-1,2.5-2.1,5-3.1,7.4
					C641.9,749.6,640.6,752.8,639.3,756.1z"/>
				<path class="st31" d="M838.6,815.4c-3.6-6.6-12.9-6.7-19.6-8c-1.8-0.3-3.6-0.6-5.3-1c0.6-2.8,1.2-5.7,1.8-8.5
					c2-9.5,5-19.5,3.9-29.3c-0.2-1.8-2.7-2.1-3.7-0.8c-5.7,8-7.9,18.4-10.8,27.7l-2.7,8.8c-2.4-0.4-4.8-0.8-7.2-1.2
					c-2.7-0.5-5.5-0.9-8.2-1.3c4.3-16.1,8.7-32.1,13.8-47.9c1.1-3.4-3.9-5.2-5.2-1.9c-6.5,16.1-13.1,32.1-19.2,48.3
					c-1.4-0.2-2.8-0.4-4.2-0.5c-8.4-0.9-16.9-0.9-25.1-2.6c-2.5-0.5-2.8,3.5-0.3,4c8.1,1.7,15.7,5.1,23.5,7.5
					c0.9,0.3,1.9,0.6,2.8,0.8c-0.3,0.8-0.6,1.6-0.9,2.5c-0.9,2.5-1.7,4.9-2.5,7.4c-1.5,0-3.1-0.1-4.6-0.1c-3.8,0-7.8,0.1-11.5,0.7
					c-4.1,0.7-7.3,1.8-11.5,1.7c-2.4,0-2.7,3.7-0.3,3.8c4.7,0.1,8.6,1.8,13.1,2.8c3.4,0.8,6.9,1.4,10.4,1.9c0.3,0,0.5,0.1,0.8,0.1
					c-1.2,3.7-2.4,7.4-3.6,11.2c-3.3,10.5-7,21.1-9.4,31.8c0,0,0.1,0,0.1,0c-3,8.7,10.9,14.4,13.7,5.1c3.2-10.6,5.3-21.6,8.1-32.3
					c1.2-4.6,2.4-9.1,3.6-13.7c3.4,0.6,6.8,1.2,10.1,1.8c1.5,0.3,2.9,0.5,4.4,0.8c-1.7,6.2-3.4,12.4-5.1,18.6
					c-2.4,8.6-7,19-6.5,28.1c-0.8,5.7,7.7,10.4,12.1,4.6c3.3-4.3,4.2-10.2,5.4-15.4c1.1-4.8,2.3-9.5,3.4-14.3
					c1.5-6.2,3-12.4,4.5-18.7c1.4,0.3,2.9,0.7,4.3,1c5.3,1.3,16.1,3.3,15.9-5.4c-0.2-7.8-9.9-8.6-15.8-9.6c-0.4-0.1-0.8-0.1-1.3-0.2
					c0.3-1.5,0.6-2.9,0.9-4.4c1.7,0.4,3.5,0.8,5.2,1.2c6.7,1.6,15.3,5.3,21.3,0.6C839,820.1,839.6,817.3,838.6,815.4z M796.9,821.9
					c-3.1-0.4-6.2-0.8-9.2-1.2c-1.9-0.2-3.9-0.4-5.8-0.6c0.4-1.4,0.7-2.7,1.1-4.1c0.3-1.1,0.6-2.2,0.9-3.3c3.2,0.9,6.4,1.7,9.6,2.5
					c1.7,0.4,3.4,0.8,5.1,1.3C798,818.4,797.5,820.1,796.9,821.9z"/>
				<path class="st31" d="M1035,658.1c-4.4-7.5-14.4-8.2-22.2-10c-4.8-1.1-9.7-2.2-14.5-3.3c0.1-0.4,0.1-0.8,0.2-1.2
					c0.3-2.1,0.7-4.1,0.9-6.2c0.3-2.9-0.2-5.5,0-8.3c0.1-2.3-3-2.9-3.9-0.8c-2,4.6-4.2,8.6-5.9,13.4c-0.1,0.4-0.2,0.7-0.4,1.1
					c-0.6-0.1-1.3-0.3-1.9-0.4c-6-1.3-11.9-2.5-17.9-3.8c1.6-6,3.3-12.1,5-18.1c1.5-5.2-5.9-7.9-7.9-2.9c-2.5,6.2-5,12.5-7.3,18.8
					c-8.2-1.7-16.4-3.5-24.6-5.3c-6.7-1.5-10.6,8.4-3.7,10.3c8.1,2.2,16.2,4.4,24.2,6.6c-1.7,5-3.4,10.1-5,15.2
					c-7.4-1.8-14.8-3.6-22.1-5.5c-6.8-1.8-10.6,8.5-3.8,10.4c7.5,2.1,15,4.3,22.5,6.6c0,0.1,0,0.2-0.1,0.2
					c-2.7,9.6-5.1,19.2-7.4,28.8c-1.1,4.7-2.2,9.3-3.2,14c-0.6,2.5-1.5,5.3-1.5,8c0.1,2.6,1.1,4.4,2.1,6.6c1.1,2.6,5.2,3.6,7.3,1.5
					c1.7-1.7,3.4-3,4.4-5.2c1-2.1,1.1-4.7,1.6-6.9c0.9-5,1.9-10.1,3-15.1c1.9-9.4,4.1-18.8,6.4-28.2c2.6,0.8,5.3,1.6,7.9,2.5
					c3.4,1.1,6.9,2.1,10.3,3.1c-2,7.3-3.9,14.7-5.9,22c-1.1,4-2.1,8.1-3.2,12.2c-0.8,3.1-1.9,6.2-1.5,9.4c-0.1,0.6,0,1.3,0.2,1.9
					c0.7,2.4,2.3,3.9,4.8,4.3c9.7,1.5,10.3-12.4,11.8-18.9c2-9.1,4-18.1,6-27.2c6.7,2.1,13.7,4.9,20.6,5.4c5.9,0.4,10.7-7.3,6.1-12
					c-1.4-1.4-2.7-2.9-4.4-4c-1.4-0.9-3.2-1-4.7-0.4c-4.8-1.4-9.9-2.2-14.5-3.4c1-4.7,2-9.5,2.9-14.3c4,1.1,8,2.1,12.1,3.2
					c7.2,1.9,18.1,6.6,25.1,2.2C1034.8,663.3,1036.4,660.6,1035,658.1z M981,670.7c-3.5-0.8-6.9-1.7-10.4-2.5
					c-2.8-0.7-5.6-1.3-8.4-2c1.3-5,2.5-10,3.8-15c5.4,1.5,10.8,3,16.2,4.5c0.9,0.3,1.9,0.5,2.8,0.8
					C983.7,661.2,982.4,665.9,981,670.7z"/>
				<path class="st13" d="M886,605.8c-29.7,43.1-61.6,84.4-96.3,123.6c-16.9,19.1-34.4,37.6-52.5,55.5c-4.3,4.2-8.6,8.5-12.9,12.6
					c-3.5,3.3-7.7,7.5-12.6,8.4c-5.1,1-10.7-1.6-15.4-3.2c-6.8-2.3-13.7-4.7-20.5-7.1c-26-9.2-51.6-19.1-77.1-29.7
					c-12.7-5.3-25.3-10.8-37.9-16.5c-10.9-4.9-21.9-9.7-31.8-16.4c-3.5-2.4-10.6-6.6-12.3-10.8c-0.9-2.4,3.6-7.3,5.7-9.9
					c6.4-8.4,13.4-16.2,20.9-23.6c15.7-15.5,33.2-28.9,51.5-41.1c41.6-27.8,87.8-48.4,127.9-78.4c5.9-4.4-0.5-14.1-7-10.8
					c-42.2,21.8-85.2,43.1-125.5,68.6c-20,12.7-39.5,26.4-56.8,42.6c-8.6,8-16.6,16.6-24.1,25.7c-8.3,10.2-18.6,22.8-11.4,36.5
					c5.9,11.2,18.8,19.4,29.6,25.3c12.1,6.6,24.7,12.1,37.2,17.8c27,12.1,54.4,23.5,82,34c13.8,5.3,27.8,10.3,41.7,15.2
					c6.6,2.3,13.6,4.9,20.7,4.9c7.7,0,14.6-2.6,20.9-6.9c10.6-7.1,19.6-17.3,28.6-26.2c10.1-10,20-20.2,29.7-30.5
					c42.6-45.4,81.9-94.1,116.5-145.8C913.4,606.6,894.5,593.5,886,605.8z"/>
			</g>
			<path class="st32" d="M1565.8,973.7c-4.6-30.3-12.2-60.4-20.6-89.8c-8.4-29.3-18.1-58.1-29.3-86.4c-11.4-28.8-24.1-57-38.2-84.5
				c-13.2-25.8-26.9-52-46.1-73.9c-18.6-21-43.5-36.5-71.8-39.1c-27.9-2.6-53,11.1-69.5,33c-17.9,23.7-23.1,54-23.8,83
				c-0.7,30.2,2.2,60.6,6.8,90.5c4.6,29.8,11.6,59.3,21.1,88c4.7,14.2,10.1,28.2,15.9,42c5.9,13.9,12.1,28.3,20.1,41.1
				c4,6.4,7.9,12.7,11.5,19.2c3,5.6,11.6,0.6,8.5-5c-6.9-12.6-11.9-26.3-17.4-39.5c-5.5-13.2-10.7-26.6-15.3-40.1
				c-9.4-27.1-16.8-54.9-22.3-83.1c-5.5-28-8.7-56.3-9.9-84.8c-1.2-27.6-1.7-57.4,9.9-83.1c9.3-20.7,27-39.5,50.5-42.4
				c25-3.1,49.1,9.7,66.4,26.8c19.1,19,32,43.4,44.5,67c13.4,25.4,25.5,51.4,36.3,78c12.3,30.1,23,60.9,32,92.2
				c9.2,31.6,15.9,63.7,22.6,95.9c1,5,6.9,7.9,11.6,6.6C1564.6,983.9,1566.6,978.8,1565.8,973.7z"/>
			<path class="st33" d="M1330.4,977.6c4,6.4,7.9,12.7,11.5,19.2c3,5.6,11.6,0.6,8.5-5c-6.9-12.6-11.9-26.3-17.4-39.5
				c-0.3-0.8-0.7-1.6-1-2.4c-5.5-0.3-11-0.8-16.5-1.4C1319.9,958.6,1324.7,968.5,1330.4,977.6z"/>
			<path class="st33" d="M1552.9,912c-5.9,3.1-11.9,5.9-18,8.6c4.6,19.3,8.6,38.7,12.7,58.1c1,5,6.9,7.9,11.6,6.6
				c5.4-1.5,7.4-6.6,6.6-11.6C1562.7,953,1558.1,932.4,1552.9,912z"/>
			<path class="st16" d="M1335.4,616.5c0,0-404.7,304.1-598.4,355.3l15.8,21.8c0,0,308.9-39.9,350.4-99.7
				c0,0,258.4-132.2,275.8-207.3S1378.6,605,1335.4,616.5z"/>
			<path class="st34" d="M745.9,968.6c-0.1,0.1-0.2,0.2-0.3,0.3"/>
			<path class="st34" d="M744.5,975.2"/>
			<path class="st16" d="M745.9,972.2h-4.2c-2.4-1.8-4.2,0-7.1,0.2c-7,0.5-13.7,4.5-17.4,10.5c-1.3,2.1-2.3,4.4-3.7,6.3
				c-3.5,4.8-9.7,7.4-15.6,6.4c-3.8,1.1-3.7,1-7.3-0.5c-3.4-1.4-7.3-1.2-10.8,0c-3.5,1.2-6.6,3.3-9.5,5.5c-1.3,1-2.7,2.4-2.2,3.9
				c0.2,0.7,0.8,1.2,1.4,1.7c5.2,4.1,12.2,5.2,18.7,6.2c-3.5,3.8-9.6,5.6-14.6,4.6s-9.6-3.6-14.4-5.4c-5.7-2.1-11.9-3.2-18-3.2
				c-1.7,0-3.4,0.1-4.9,0.8c-4.4,2.1-4.8,8.7-1.9,12.7c2.9,3.9,7.8,5.7,12.6,6.9c8.7,2.1,17.6,3,26.2,5.4c6.6,1.9,13.1,4.7,19.9,4.3
				c6.8-0.3,13-3.8,18.2-8.1s9.5-9.6,14.2-14.5c7.7-7.9,16.6-14.8,26.2-20.3c2.5-1.4,5-2.8,6.9-4.9s2.9-5.3,1.7-7.9
				c-0.7-1.6-2.2-2.7-3.6-3.7c-6.2-4.3-1.8-5.3-9.2-7"/>
			<path class="st32" d="M1352.2,1120.7c8.1,19.5,17.6,40.2,35.8,51c12,7.2,26.4,9.2,40.3,10.2c45.7,3.4,92-2,135.7-15.7
				c9-2.8,17.9-6.1,25.7-11.4c11.5-7.9,19.6-20.1,25.1-32.9c17.4-40.5,9.9-89.7-15.6-125.6c-4.4-6.2-9.3-12.1-15.6-16.3
				c-6.7-4.5-14.5-7-22.4-8.3c-36.4-6.3-72.6,9.2-109.3,13.5c-35.5,4.2-71.7-2.8-107,0.8c-35.4,3.6-21.1,48.1-14.9,71.6
				C1335.6,1079.2,1343.7,1100.1,1352.2,1120.7z"/>
			<path class="st33" d="M1378.3,1100.9c10.7,6.2,23.3,8.5,35.7,9.6c55.1,4.8,109.9-12,161.3-32.5c10.5-4.2,21.2-8.7,28.9-16.9
				c7-7.5,10.8-17.2,13.8-27c-4.2-13.4-10.5-26.2-18.7-37.7c-4.4-6.2-9.3-12.1-15.6-16.3c-6.7-4.5-14.5-7-22.4-8.3
				c-36.4-6.3-72.6,9.2-109.3,13.5c-35.5,4.2-71.7-2.8-107,0.8c-7.9,0.8-13.3,3.6-16.9,7.8c3.5,15.1,7.5,30,11.9,44.9
				C1346.9,1062.7,1356.7,1088.3,1378.3,1100.9z"/>
			<path class="st32" d="M1589.9,944c-5.5-10.5-18.5-14.4-28.9-8.8c-54,28.6-162.8,38.4-209.1,41.3c-12.4,0.8-21.5,11.7-20.3,24.1
				c3.5,34,15.1,60.9,51.1,70.7c43.8,11.8,200.2-23.5,222.2-47.5C1619.6,1007.6,1602.7,968.3,1589.9,944z"/>
			<path class="st35" d="M1407.8,1053.1c-13.5-0.2-27.8-1.2-38.9-9c-9.5-6.6-15.3-17.2-19.4-28c-4.5-11.7-7.3-24.2-7.1-36.7
				c-7.1,4.2-11.5,12.3-10.6,21.1c3.5,34,15.1,60.9,51.1,70.7c43.8,11.8,200.2-23.5,222.2-47.5c3-3.3,4.7-7.6,5.3-12.5
				C1547.7,1041.2,1477.3,1054.3,1407.8,1053.1z"/>
			<path class="st34" d="M1474.1,1035.9c-0.2,0.8-1.3,1.3-2,0.9"/>
			<path class="st14" d="M1502.4,1077.3c0.6,6.7,7.3,11,13.6,9c1.1-0.3,2.1-0.7,3.2-1.1c2.1-0.8,4.2-1.7,5.7-3.4
				c1.7-2.1,2.1-4.9,2.2-7.6c0.6-10.5-0.9-21-2.3-31.4c-0.9-6.6-2-13.7-6.5-18.7c-4-4.5-10.1-6.6-16.1-6.9
				c-21.1-1.1-12.2,11.8-7.5,24.9C1498.8,1053.4,1501.4,1065.3,1502.4,1077.3z"/>
		</g>
	</g>
</g>
</svg>
