<svg xmlns="http://www.w3.org/2000/svg" viewBox="0 0 2272 1872"><style>.st3{fill:#c6bcab}.st4{fill:#b7ac9e}.st5{fill:#ddd4c7}.st6{fill:#d5d3ea}.st7{fill:#9b9ab5}.st9{fill:#440235}.st10{fill:#8681bd}.st11{fill:#ef7c2e}.st13{fill:#87522d}.st14{fill:#60391e}.st16{fill:#ec5946}.st18{fill:#2d3e51}.st19{fill:#617677}.st20{fill:#db3423}.st25{fill:#f96058}.st26{fill:#a8251e}.st29{fill:#daffc5}.st31{fill:#b78820}.st32{fill:#ffbe57}.st33{fill:#b27c2f}.st34{fill:none}</style><g id="Background"><path fill="transparent" d="M0 0h2272v1872H0z"/></g><g id="object"><path d="M252 1251c26-102 96-188 122-289 35-134-8-279 33-411a347 347 0 01269-236c49-8 100-5 151-8 139-7 271-56 405-96s275-71 411-40 263 138 275 277c9 106-48 208-44 315 3 80 40 154 67 230 47 131 63 274 48 412-7 58-20 118-58 162-49 58-128 77-204 84-137 11-275-10-413-14-195-5-388 26-583 30-98 2-195-4-291-22-75-15-125-77-158-144-38-76-51-167-30-250z" fill="#faf4e8"/><path d="M1509 1278c-235 88-491 110-741 88-177-15-355-52-508-141l-8 26c-21 83-8 174 30 250 33 67 83 129 158 144 96 18 193 24 291 22 195-4 388-35 583-30 138 4 276 26 413 14 76-7 156-26 205-84 37-44 51-104 57-162 12-111 4-224-23-333l-72 29c-130 57-253 127-385 177z" fill="#eae5dc"/><path class="st3" d="M1749 345h21v1168h-21zM1403 345h21v1168h-21zM512 415h21v1169h-21z"/><path class="st4" d="M1657 740h152v220h-152z"/><path class="st5" d="M1618 740h152v220h-152z"/><path class="st4" d="M1209 740h152v220h-152z"/><path class="st5" d="M1170 740h152v220h-152z"/><path class="st4" d="M494 740h152v220H494z"/><path class="st5" d="M455 740h152v220H455z"/><path class="st4" d="M494 1027h152v219H494z"/><path class="st5" d="M455 1027h152v219H455z"/><path class="st4" d="M829 1027h152v219H829z"/><path class="st5" d="M790 1027h152v219H790z"/><path class="st4" d="M1250 1027h152v219h-152z"/><path class="st5" d="M1211 1027h151v219h-151z"/><g><path class="st4" d="M1649 1027h152v219h-152z"/><path class="st5" d="M1610 1027h152v219h-152z"/></g><path class="st3" d="M396 1247h1514v15H396zM396 961h1514v15H396z"/><g><path class="st6" d="M506 1542c-138 12-281 30-395 108-14 10-29 23-27 40 2 23 31 32 54 34 157 16 316 5 474-4 350-21 701-29 1052-25 145 2 292 5 429-39 79-25-4-64-41-78-38-14-79-26-119-32-88-13-181-11-270-17a7944 7944 0 00-1157 13z"/><path class="st7" d="M1600 1590l-500 8c-209 4-474-26-666 80-12 6-9 24 4 27 55 11 120 6 170-6 318-75 649-61 975-67 25 0 53-3 69-22-8-18-32-21-52-20zM1820 1621c-8 0-8 11 0 11 7 0 7-11 0-11zM1970 1614c-7 0-7 11 0 11 8 0 8-11 0-11zM1702 1628v-2c-1-2-3-4-5-4-3 0-5 2-5 4l-1 2c-1 4 2 8 6 8s6-4 5-8zM1828 1581a6 6 0 00-10 0 6 6 0 000 6l1 2 1 2h6l2-2v-2l1-3-1-3zM1886 1613c-4 0-4 6 0 6s4-6 0-6zM256 1665l-5-2h-2c-3 0-6 3-6 6s2 5 6 5h2l5-1 1-4-1-4zM375 1638c-3 0-3 5 0 5s3-5 0-5zM424 1568c-3 0-3 5 0 5s3-5 0-5zM480 1613c-8 0-8 13 0 13 9 0 9-13 0-13zM298 1634c-8 0-8 13 0 13s8-13 0-13zM298 1674c-7 0-7 11 0 11s7-11 0-11zM717 1575c-1-3-2-5-6-5-5 0-5 7-5 11 0 3 2 6 5 5 4 0 6-2 6-5v-6zM810 1553c-4 0-4 6 0 6 4 1 4-6 0-6zM925 1526c-7 0-7 12 0 12 8 0 8-12 0-12z"/><path class="st7" d="M1013 1654h-10l-9 3c-4 2-4 9 1 9l11-1 9-4c3-2 1-7-2-7zM1146 1655h-10c-4 0-7 3-7 6 0 4 3 7 7 7h10c4 0 7-3 7-6 0-4-3-7-7-7zM1297 1643c-10 0-10 16 0 16s10-16 0-16zM1253 1527l-4-3c-1-2-3-2-5-2-1 0-3 0-5 2l-2 4 2 5 4 4 5 2 5-2 2-5-2-5z"/></g><g><path d="M1156 724c-81 56-173 92-267 120-23 7-51 17-55 41-3 18 9 35 25 43s34 8 52 5c29-4 58-14 86-24l89-32c36-13 73-26 104-48 32-22 58-54 64-92 2-16 1-33-7-47-11-19-28-27-44-11-15 17-28 32-47 45z" fill="#ad342a"/><path class="st9" d="M1057 1229s233 241 303 266l236 84s-40 51-32 47 92-36 94-57-265-185-265-185l-196-346s-156 94-140 191z"/><path class="st10" d="M1393 1384l-111-196c-42 47-88 90-139 127 74 72 175 165 217 180l236 84s-40 51-32 47c9-4 92-37 94-58s-265-184-265-184z"/><path class="st11" d="M1284 217c47-34 101-70 159-66 16 2 34 9 36 24 1 8-4 16-8 23-54 85-126 157-201 224-87 77-179 149-283 201-21 11-45 21-68 15-24-5-67-46-61-73 3-15 30-30 41-39l53-45a8446 8446 0 01332-264z"/><path d="M1443 151h-8l-20 11c-22 16-36 40-59 54-15 9-33 14-46 26-12 13-17 30-28 45-22 32-66 44-85 77-9 16-12 35-21 51-15 25-42 38-63 57-33 29-51 74-90 94-23 13-51 14-75 23-21 8-39 21-53 37 9 6 17 11 24 12 23 6 47-4 68-15 104-52 196-124 283-201 75-67 147-139 201-224 4-7 8-15 8-23-2-15-20-22-36-24z" fill="#f9ae93"/><path class="st11" d="M1279 359c-6 4-13 7-20 9l-2-13c-1-6-1-12-3-17 0-2-2-2-3-1-6 9-5 22-4 32l1 3c-1 2-1 5 1 7l2 8c1 5 3 11 9 11 4 0 6-5 5-9l-3-11c8-2 16-6 22-13 2-3-1-8-5-6zM1331 330c-5-3-10 1-15 3l-5 2-2-11c-1-11 1-22-2-33h-3c-6 9-7 23-7 34l1 17c1 6 2 13 5 19s14 3 13-4l-3-12 6-2c5-1 13-3 14-9 0-2 0-4-2-4zM1371 284l-20 10-2-10-2-33c0-4-7-5-8-1-5 23-4 48 3 70 1 6 8 8 12 4l5-10c1-4-2-6-5-5l-2-7 7-1c7-1 12-4 16-9 3-3 1-9-4-8zM1439 210c-5-1-9 1-13 4l-2-18c0-6-9-6-9 0v25l-1 1c-5 2-2 8 2 9v6c-5 1-9 4-13 7l-7 4c0-7 0-15-2-23-1-2-3-2-4 0-3 9-3 20-3 29v1h-1c-2 1-2 5 0 5 0 7 0 17 7 17 4 0 5-4 5-7l-1-12h1l10-4c5-2 9-5 12-9l2 1c2 2 5 1 6-2 3-3 1-6 1-10l-2-8c6-3 12-5 15-11 1-2-1-5-3-5zM1237 401a46 46 0 00-12 4l-1-15-1-8-2-11c0-2-4-2-4 0l-2 8-1 8-1 18-2 18c-1 4 0 10 5 11 9 1 9-11 9-20 5-1 10-3 14-6 2-2 2-7-2-7z"/><path class="st13" d="M1232 516c-17-8-26-28-24-47 2-18 14-35 29-46 35-25 88-21 119 10 28 27 35 69 41 108 7 54 56 93 95 132 39 38 82 73 120 112 21 21 40 44 53 71s18 59 10 87c-8 25-25 45-46 60-20 16-44 26-68 35-28 10-56 18-85 20-22 1-43-2-63-8-19-6-38-15-51-29-9-10-16-22-21-35-25-61-10-131-21-196-10-54-39-108-28-162 4-22 15-44 7-65-3-7-8-13-13-19-14-16-35-19-54-28z"/><path class="st14" d="M1397 1004c22-3 44-9 60-23 14-11 23-27 30-42 15-35 18-75 10-112-7-26-19-51-32-74a663 663 0 00-167-192l1 3c8 20-2 43-7 64-10 55 18 108 28 163 12 65-4 134 21 196l8 16c16 3 32 3 48 1z"/><path class="st10" d="M1307 595s-215 66-207 107l16 87-15 171s-490 395-493 420-86 269-86 269-111 43-92 46c20 4 125-12 125-12v-30s155-201 167-258c0 0 524-193 534-260s0-114-52-189c0 0 59-152 139-213s25-147-36-138z"/><path d="M1307 595s-215 66-207 107l16 87-15 171-23 19 9-5c37-18 77-28 118-31 9-20 65-154 138-210 80-61 25-147-36-138z" fill="#a4d38f"/><path class="st9" d="M1335 737l-2-4-5-1-16 6-177 89-24 11-7 86c53-26 106-54 154-87 21-36 47-72 77-97v-3z"/><path class="st16" d="M1393 1384l-20-35a729 729 0 01-115 73c42 36 80 65 102 73l236 84s-40 51-32 48c8-4 92-37 94-58s-265-185-265-185zM744 1255a986 986 0 00-136 125c-3 25-87 269-87 269s-111 43-91 46c19 4 124-12 124-12l1-30s155-201 167-258l122-47c-40-23-74-55-100-93z"/><path class="st9" d="M1646 1553a73 73 0 01-51 27c-5 7-38 50-31 47 9-4 92-37 94-58 1-3-4-9-12-16zM515 1652c-24 9-102 40-85 43 20 4 125-12 125-12v-25c-14 2-28 0-40-6z"/><path class="st16" d="M1242 481c-3 1-53 83-31 90s75-12 75-12 40 23 46 2 9-38-21-46c0 0-19-55-69-34z"/><path class="st9" d="M1217 572c24 3 69-13 69-13s40 23 46 2c3-10 5-20 3-28-40 12-79 25-118 39z"/><path class="st6" d="M1229 574l128-42c6-2 13 2 14 9l4 38c1 6-3 11-8 12l-126 27c-5 1-11-2-13-7l-6-24c-2-5 1-11 7-13z"/><path d="M1229 574c-6 2-9 7-7 13l6 23c2 6 8 9 13 8l30-7c15-23 31-45 48-67l-90 30z" fill="#a1a1b2"/><path class="st18" d="M1229 574c-6 2-9 7-7 13l6 23c2 6 8 9 13 8h1l-7-46-6 2zM1375 579l-4-38c-1-7-8-11-14-9l6 60 4-1c5-1 9-6 8-12z"/><circle class="st9" cx="1363.7" cy="541" r="2.8"/><path class="st13" d="M1240 480c-1 10 4 21 11 28 8 7 18 12 28 15l-1-18c4 8 11 17 19 20 7-7 19-14 29-16-3-10-6-21-11-30s-13-18-22-22c-11-5-23-5-33 0-11 5-19 12-20 23z"/><g><path class="st19" d="M921 220c-10-1-18 6-18 15l-6 67 33-1 6-63c1-9-6-17-15-18z"/><path class="st19" d="M918 261c-36-3-68 24-70 60l-21 256 127-5 23-240c4-36-23-68-59-71z"/><path class="st6" d="M921 394a249 249 0 01-78-14l-6 72c18 7 36 14 54 17 24 6 50 6 73-1l8-83c-16 7-34 9-51 9z"/><path class="st20" d="M934 197l-25-2c-6 0-11 5-12 11l-2 30c-1 6 4 12 10 12l25 2c6 1 11-4 12-10l2-30c1-7-4-12-10-13z"/><path d="M918 629c0-7 100-284 100-284l203 114 6 32-97 186-212-48z" fill="#9b8562"/><path d="M1227 491l-6-32-203-114S918 622 918 629l68 15 58-243 183 90z" fill="#ffeecb"/><path d="M918 629l68 15 58-243-26-56S918 622 918 629z" fill="#ceb891"/><path fill="#9c9cb7" d="M1021 498l-18 75 155 50 29-56z"/><path class="st6" d="M991 569l12 4 18-75-45-36-2 6-6 16-5 13-7 20-2 6-1 3 38 43z"/><path class="st20" d="M1012 558c3-24 24-44 47-50 9-3 19-3 28-1 17 6 28 22 29 39 0 17-8 34-21 45-14 13-41 28-60 17a51 51 0 01-23-50z"/><path class="st25" d="M1062 532c10 6 22 6 32 1 5-2 10-6 13-11-5-6-12-12-20-14-9-3-18-3-28 0-5 1-9 3-14 6 4 7 10 14 17 18z"/><path class="st26" d="M1073 566c-7-1-14 4-21 5h-5c-4-1-7-5-7-9l-2-13c-2-8-9-13-17-13-5 6-8 14-9 22-3 19 7 40 23 50 19 11 46-4 60-17l6-5-6-3c-7-5-13-15-22-17z"/><g><path class="st20" d="M951 523c18-16 47-17 69-6 8 4 16 10 21 18 9 15 6 34-5 48a58 58 0 01-45 20c-19 0-50-6-56-27-5-19 1-40 16-53z"/><path class="st25" d="M1006 537c3 10 12 19 23 22h17c1-8-1-17-5-24-5-8-13-14-21-18-5-3-10-4-15-5-2 8-2 17 1 25z"/><path class="st26" d="M991 569c-5-5-13-6-19-10l-4-3c-2-4-1-8 1-12l8-10c3-7 1-17-5-22-7 2-15 6-21 11a51 51 0 00-16 53c7 21 37 27 57 27h7l-2-6c-2-9 1-20-6-28z"/></g><g><path class="st20" d="M1097 573c19 15 26 43 19 66-3 9-7 18-15 24a43 43 0 01-47 4c-15-8-25-24-28-40-4-20-3-51 17-61 17-8 40-6 54 7z"/><path class="st25" d="M1094 629c-10 6-17 16-18 27-1 6 0 11 2 17 9-1 17-4 23-9 8-7 12-15 15-25l2-15c-8 0-17 1-24 5z"/><path class="st26" d="M1059 621c4-6 4-14 6-21l3-5c3-2 8-2 12 0l11 5c8 2 17-1 21-8-3-7-8-14-15-19a52 52 0 00-54-7c-20 10-21 41-17 61l1 7 5-3c9-4 21-3 27-10z"/></g><g><path d="M717 511c9-6 12-17 13-27s0-21 4-31c5-11 15-19 26-21s24 3 31 11 12 20 22 21c6 0 11-3 16-6 10-7 21-15 33-18s28 2 32 14c4 10-1 21 3 31 6 11 21 14 33 15 13 2 28 7 30 20 2 16-20 30-12 44l6 8c7 11-3 24-14 31-28 20-64 30-98 27-15-1-31-5-45 0-28 9-38 12-63-7-11-9-22-18-30-30-10-14-22-33-26-50-6-32 21-22 39-32z" fill="#97dd72"/><path d="M913 560c-1-9 0-20-8-24-9-5-19 5-29 5-8 0-15-5-18-12-4-6-4-14-5-21 0-4-1-7-3-10-2-1-5-2-7-1-13 0-22 14-29 25s-20 23-32 17c-10-5-13-20-24-23-9-3-19 5-22 14s-3 19-4 29-6 20-15 23c-7 3-15 1-22-2l9 13c8 12 18 21 30 30 25 19 34 16 63 7 14-5 30-1 45 0 34 3 70-7 98-27l8-7c-5-4-13-6-19-10-9-5-15-15-16-26z" fill="#7eb55d"/><path class="st29" d="M795 570l-7-15c-2-7 0-14 0-21 2-14-6-25-13-36-8-11-19-26-11-39 1-2-1-4-3-2-9 9-6 23-1 34 6 12 18 23 19 38 0 7-3 14-2 21 0 6 2 12 5 17 5 10 12 19 11 31-1 6 8 8 10 2 3-11-2-21-8-30zM780 597c-3-8-11-13-18-16-8-5-15-9-19-18-8-14-13-33-32-34-4 0-4 5-1 5 18 2 20 28 28 40 4 6 10 10 16 14l9 6 8 8c5 4 10 0 9-5zM862 467c-11-2-18 11-22 19a88 88 0 00-9 51l2 20c0 7-3 13-6 20-3 6-7 14-8 21 0 5 7 7 10 3 4-4 5-11 7-16 3-6 6-12 7-19 3-11-1-22-2-33 0-11 0-22 3-33l6-15c3-5 6-12 12-13 3 0 3-4 0-5zM925 525c-18 5-31 17-39 34-4 9-8 18-16 24s-18 7-27 13c-5 3-3 11 4 10 9-1 18-5 25-10 8-5 15-12 19-21 4-8 7-18 13-26 5-7 14-13 23-16 5-1 3-9-2-8z"/></g><path d="M719 1059s-161-77-193-134 138-374 132-381 389-2 511 112L915 990l-196 69z" fill="#fec83d"/><path class="st31" d="M1169 656c-20-19-48-35-80-48-43 83-101 157-162 228-60 70-123 138-185 205l-13 14 186-65 254-334zM687 761l-33-3 2-6 5-11 12 1c7 0 21 3 23-6 3-9-11-9-17-9l-13-1 10-25 19-53c0-2-2-4-3-2-11 16-19 33-27 50l-13 29h-1l-18-2 37-81c2-3-4-6-5-3-15 27-29 55-42 83-8-1-18-4-26-1-2 0-3 2-1 3 5 6 14 7 22 9l-3 7-6 14-12-1h-7c-2 0-4 2-6 1-3 0-3 4 0 4l5 3 7 2 9 2-12 28c-6 17-13 34-17 53 0 3 5 5 6 2a2581 2581 0 0133-81l19 3a1323 1323 0 00-20 55c-3 8-7 18-6 27 0 4 7 7 10 3 6-7 8-16 11-25l9-25 11-33 37 6c10 2 12-16 1-17zm-48-5h-5l-14-2 4-10 3-8 18 3h1l-3 7-4 10zM839 815c-4-6-13-6-20-8l-5-1 2-8c2-10 5-20 3-29 0-2-2-2-3-1-6 8-8 18-11 28l-3 8-7-1-8-1c4-16 8-32 14-48 1-3-4-5-6-2l-19 48h-4c-8-1-17-1-25-3-3 0-3 4 0 4l23 8 3 1-1 2-3 7h-4l-12 1-11 2c-3 0-3 3 0 4l13 2 10 2h1l-4 11-9 32c-3 9 11 15 14 5l8-32 3-14 10 2 5 1-5 19c-3 8-7 19-7 28-1 5 8 10 12 4 4-4 5-10 6-15l3-14 5-19 4 1c5 1 16 3 16-6 0-7-10-8-16-9h-1l1-5 5 1c7 2 15 6 21 1 2-1 3-4 2-6zm-42 7l-9-1-6-1 1-4 1-3 9 2 6 1-2 6zM1035 658c-4-7-14-8-22-10l-15-3v-1l1-7v-8c0-2-3-3-4-1l-5 14-1 1-2-1-18-3 5-18c2-6-5-8-7-3l-8 18-24-5c-7-1-11 9-4 10l24 7-5 15-22-5c-7-2-11 8-4 10l23 7-8 29-3 14-1 8 2 6c1 3 5 4 7 2l4-5 2-7a403 403 0 019-44l8 3 11 3-6 22-4 12c0 3-2 6-1 10v2c1 2 2 3 5 4 10 1 10-13 12-19l6-27c6 2 13 5 20 5 6 1 11-7 6-12l-4-4h-5l-14-4 3-14 12 3c7 2 18 7 25 2 2-1 3-3 2-6zm-54 13l-10-3-9-2 4-15 16 5 3 1-4 14z"/><path class="st13" d="M886 606a1292 1292 0 01-149 179l-13 12c-3 4-7 8-12 9s-11-2-16-3a1660 1660 0 01-135-54c-11-5-22-9-32-16-3-2-11-7-12-11-1-2 3-7 5-10l21-23c16-16 34-29 52-41 41-28 88-49 128-79 6-4-1-14-7-11-42 22-85 43-126 69a381 381 0 00-81 68c-8 11-18 23-11 37 6 11 19 19 30 25 12 7 24 12 37 18a1538 1538 0 00123 49c7 2 14 5 21 5 8 0 15-3 21-7 11-7 20-17 29-26a1218 1218 0 00146-176c8-13-10-26-19-14z"/></g><path class="st32" d="M1566 974a725 725 0 00-50-176c-11-29-24-57-38-85-13-26-27-52-46-74-19-21-44-36-72-39s-53 11-70 33c-18 24-23 54-23 83a518 518 0 0043 221 295 295 0 0032 60c3 5 12 0 8-5l-17-40a648 648 0 01-47-208c-2-27-2-57 9-83 10-20 27-39 51-42 25-3 49 10 66 27 19 19 32 43 45 67a862 862 0 0191 266c1 5 7 8 11 6 6-1 8-6 7-11z"/><path class="st33" d="M1330 978l12 19c3 5 12 0 8-5l-17-40-1-2-16-1 14 29zM1553 912l-18 9 13 58c1 5 7 8 11 6 6-1 8-6 7-11-3-21-8-42-13-62z"/><path class="st16" d="M1335 617S931 921 737 972l16 22s309-40 350-100c0 0 259-132 276-207s0-82-44-70z"/><path class="st34" d="M746 969"/><path class="st16" d="M746 972h-4c-3-2-5 0-7 0-7 1-14 5-18 11l-4 6c-3 5-9 8-15 7-4 1-4 1-7-1h-11c-4 1-7 3-10 6l-2 4 1 1c6 4 13 5 19 6-3 4-9 6-14 5l-15-5c-6-2-12-4-18-4l-5 1c-4 2-5 9-2 13s8 6 13 7l26 5c7 2 13 5 20 5 7-1 13-4 18-9l15-14c7-8 16-15 26-20l7-5c2-2 3-6 1-8 0-2-2-3-3-4-6-4-2-5-9-7"/><path class="st32" d="M1352 1121c8 19 18 40 36 51 12 7 26 9 40 10 46 3 92-2 136-16 9-3 18-6 26-11 11-8 19-20 25-33 17-41 10-90-16-126-4-6-9-12-15-16-7-5-15-7-23-8-36-7-72 9-109 13-36 4-72-3-107 1s-21 48-15 72c6 21 14 42 22 63z"/><path class="st33" d="M1378 1101c11 6 24 8 36 10a358 358 0 00190-50c7-7 11-17 14-27-4-13-10-26-19-38-4-6-9-12-15-16-7-4-15-7-23-8-36-7-72 9-109 13-35 4-72-3-107 1-8 1-13 4-17 8l12 45c7 24 17 49 38 62z"/><path class="st32" d="M1590 944c-6-10-19-14-29-9-54 29-163 39-209 42-12 0-22 11-20 24 3 34 15 61 51 70 44 12 200-23 222-47 15-16-2-56-15-80z"/><path d="M1408 1053c-14 0-28-1-39-9-10-7-15-17-20-28-4-12-7-24-7-37-7 5-11 13-10 21 3 34 15 61 51 71 44 12 200-23 222-47 3-4 5-8 5-13-62 30-133 43-202 42z" fill="#ffd18d"/><path class="st34" d="M1474 1036l-2 1"/><path class="st14" d="M1502 1077c1 7 8 11 14 9l3-1 6-3c2-2 2-5 2-8 1-10-1-21-2-31-1-7-2-14-7-19-4-4-10-7-16-7-21-1-12 12-7 25 4 11 6 23 7 35z"/></g></g></svg>